ModelForces
version=1
nRows=4
nColumns=155
inDegrees=no

This file contains the forces exerted on a model during a simulation.

A force is a generalized force, meaning that it can be either a force (N) or a torque (Nm).

Units are S.I. units (second, meters, Newtons, ...)
Angles are in degrees.

endheader
time	glut_med1_r	glut_med2_r	glut_med3_r	glut_min1_r	glut_min2_r	glut_min3_r	semimem_r	semiten_r	bifemlh_r	bifemsh_r	sar_r	add_long_r	add_brev_r	add_mag1_r	add_mag2_r	add_mag3_r	tfl_r	pect_r	grac_r	glut_max1_r	glut_max2_r	glut_max3_r	iliacus_r	psoas_r	quad_fem_r	gem_r	peri_r	rect_fem_r	vas_med_r	vas_int_r	vas_lat_r	med_gas_r	lat_gas_r	soleus_r	tib_post_r	flex_dig_r	flex_hal_r	tib_ant_r	per_brev_r	per_long_r	per_tert_r	ext_dig_r	ext_hal_r	glut_med1_l	glut_med2_l	glut_med3_l	glut_min1_l	glut_min2_l	glut_min3_l	semimem_l	semiten_l	bifemlh_l	bifemsh_l	sar_l	add_long_l	add_brev_l	add_mag1_l	add_mag2_l	add_mag3_l	tfl_l	pect_l	grac_l	glut_max1_l	glut_max2_l	glut_max3_l	iliacus_l	psoas_l	quad_fem_l	gem_l	peri_l	rect_fem_l	vas_med_l	vas_int_l	vas_lat_l	med_gas_l	lat_gas_l	soleus_l	tib_post_l	flex_dig_l	flex_hal_l	tib_ant_l	per_brev_l	per_long_l	per_tert_l	ext_dig_l	ext_hal_l	ercspn_r	ercspn_l	intobl_r	intobl_l	extobl_r	extobl_l	femur_lat_meniscii_r.femur_lat_r.force.X	femur_lat_meniscii_r.femur_lat_r.force.Y	femur_lat_meniscii_r.femur_lat_r.force.Z	femur_lat_meniscii_r.femur_lat_r.torque.X	femur_lat_meniscii_r.femur_lat_r.torque.Y	femur_lat_meniscii_r.femur_lat_r.torque.Z	femur_lat_meniscii_r.meniscus_lat_r.force.X	femur_lat_meniscii_r.meniscus_lat_r.force.Y	femur_lat_meniscii_r.meniscus_lat_r.force.Z	femur_lat_meniscii_r.meniscus_lat_r.torque.X	femur_lat_meniscii_r.meniscus_lat_r.torque.Y	femur_lat_meniscii_r.meniscus_lat_r.torque.Z	femur_med_meniscii_r.femur_med_r.force.X	femur_med_meniscii_r.femur_med_r.force.Y	femur_med_meniscii_r.femur_med_r.force.Z	femur_med_meniscii_r.femur_med_r.torque.X	femur_med_meniscii_r.femur_med_r.torque.Y	femur_med_meniscii_r.femur_med_r.torque.Z	femur_med_meniscii_r.meniscus_med_r.force.X	femur_med_meniscii_r.meniscus_med_r.force.Y	femur_med_meniscii_r.meniscus_med_r.force.Z	femur_med_meniscii_r.meniscus_med_r.torque.X	femur_med_meniscii_r.meniscus_med_r.torque.Y	femur_med_meniscii_r.meniscus_med_r.torque.Z	femur_med_tibia_r.tibia_upper_r.force.X	femur_med_tibia_r.tibia_upper_r.force.Y	femur_med_tibia_r.tibia_upper_r.force.Z	femur_med_tibia_r.tibia_upper_r.torque.X	femur_med_tibia_r.tibia_upper_r.torque.Y	femur_med_tibia_r.tibia_upper_r.torque.Z	femur_med_tibia_r.femur_med_r.force.X	femur_med_tibia_r.femur_med_r.force.Y	femur_med_tibia_r.femur_med_r.force.Z	femur_med_tibia_r.femur_med_r.torque.X	femur_med_tibia_r.femur_med_r.torque.Y	femur_med_tibia_r.femur_med_r.torque.Z	femur_lat_tibia_r.tibia_upper_r.force.X	femur_lat_tibia_r.tibia_upper_r.force.Y	femur_lat_tibia_r.tibia_upper_r.force.Z	femur_lat_tibia_r.tibia_upper_r.torque.X	femur_lat_tibia_r.tibia_upper_r.torque.Y	femur_lat_tibia_r.tibia_upper_r.torque.Z	femur_lat_tibia_r.femur_lat_r.force.X	femur_lat_tibia_r.femur_lat_r.force.Y	femur_lat_tibia_r.femur_lat_r.force.Z	femur_lat_tibia_r.femur_lat_r.torque.X	femur_lat_tibia_r.femur_lat_r.torque.Y	femur_lat_tibia_r.femur_lat_r.torque.Z	aACL_R	pACL_R	aPCL_R	pPCL_R	aMCL_R	mMCL_R	pMCL_R	aLCL_R	mLCL_R	pLCL_R	aPCL_L	pPCL_L	aMCL_L	aLCL_L
      0.14502687	     12.40172566	      9.13474086	      9.83529715	      4.20223814	      4.86124567	      5.33409705	     77.29870322	    154.75443120	    189.04578716	    340.22643713	    123.20973349	      9.10071857	      6.51696238	      0.00000000	      3.98920222	      6.76860532	      4.86483883	      3.54924185	     94.49888587	      5.90056790	      8.97801556	      6.75603489	     29.00452996	     20.19149250	      5.78934573	      3.89664481	      6.35172987	     40.86760050	     30.76880097	     33.35270979	     46.11611948	      0.00000000	      0.00000000	      0.00000000	      0.00000000	      0.00000000	      0.00000000	     32.39475641	      1.99848752	      1.64701328	     15.45626863	     27.22325004	      7.70535858	     12.40172566	      9.13474086	      9.83529715	      4.20223814	      4.86124567	      5.33409705	      0.00000000	      6.80666575	     13.32169882	     11.52422046	      2.39673156	      9.10071857	      6.51696238	      0.00000000	      3.98920222	      6.76860532	      5.81471308	      3.54924185	      2.47793276	      5.90056790	      8.97801556	      6.75603489	     29.00452996	     20.19149250	      5.78934573	      3.89664481	      6.35172987	     18.82285033	      0.00000000	      0.00000000	      0.00000000	     21.36382959	     10.17168568	     54.54259921	     53.18898247	      5.86666141	      5.23534013	     14.52356421	      7.81969369	     19.49806555	      3.12085171	     10.03375959	      3.16315391	     39.56199829	     39.56199829	     14.80063652	     14.80063652	     32.04329695	     32.04329695	     28.19636527	    352.95281363	     54.13799394	    -30.55232039	      0.88555797	      9.28623308	    -28.19636527	   -352.95281363	    -54.13799394	     10.34747232	     -1.90205377	      7.86398361	     23.95457060	     46.64363512	      8.60715310	     -2.43941540	     -0.45446890	      9.41724814	    -23.95457060	    -46.64363512	     -8.60715310	     -0.78974786	      0.25814237	      0.63376423	    -75.59754174	   -566.18749743	    114.89979095	    -11.62559906	      3.65473575	     10.51848799	     75.59754174	    566.18749743	   -114.89979095	     56.85252832	     -1.73886769	     28.67901776	     -0.49222979	    -46.14946333	    -10.10786898	      1.42494251	     -0.24775843	      1.06316257	      0.49222979	     46.14946333	     10.10786898	     -5.23251416	      0.06648183	     -0.05008870	     14.04980353	    -15.33193426	     71.01667505	     72.45328951	      0.00000000	      0.00000000	      0.00000000	      0.00000000	      0.00000000	      0.00000000	      0.00000000	      0.00000000	      0.00000001	      0.00000000
      0.14568722	     12.37011619	      9.10449348	      9.80235633	      4.18887906	      4.84659279	      5.31556520	     76.23923970	    155.50990839	    187.75365872	    339.61048471	    123.62362754	      9.07024654	      6.49643626	      0.00000000	      3.97582389	      6.74432008	      4.87671598	      3.53787796	     94.88452095	      5.88093308	      8.94807863	      6.73318203	     28.94855447	     20.12764263	      5.77054980	      3.88739428	      6.35182535	     41.15039702	     30.68479103	     33.30376443	     46.04687056	      0.00000000	      0.00000000	      0.00000000	      0.00000000	      0.00000000	      0.00000000	     32.53605450	      2.07487515	      1.74507218	     19.70073416	     27.54588804	      7.78894051	     12.37011619	      9.10449348	      9.80235633	      4.18887906	      4.84659279	      5.31556520	      0.00000000	      6.78280457	     13.28299817	     11.48675229	      2.38914759	      9.07024654	      6.49643626	      0.00000000	      3.97582389	      6.74432008	      5.79984020	      3.53787796	      2.46995559	      5.88093308	      8.94807863	      6.73318203	     28.94855447	     20.12764263	      5.77054980	      3.88739428	      6.35182535	     18.75410075	      0.00000000	      0.00000000	      0.00000000	     21.36988046	     10.17041511	     54.42326602	     53.10843595	      5.85138207	      5.22227518	     14.47683644	      7.79230186	     19.45185800	      3.11102351	      9.98203761	      3.14561095	     39.43595175	     39.43595175	     14.74985562	     14.74985562	     31.99706500	     31.99706500	     29.73105950	    351.42921166	     53.92467058	    -30.43255312	      0.92017865	      9.90880745	    -29.73105950	   -351.42921166	    -53.92467058	     10.29776462	     -1.93982330	      7.83745784	     23.90891217	     45.42385222	      8.64115941	     -2.47574231	     -0.45799781	      9.41222080	    -23.90891217	    -45.42385222	     -8.64115941	     -0.76995455	      0.26085849	      0.60448003	    -81.57918920	   -567.03274463	    116.38430020	    -11.67457703	      3.79604625	     10.45601424	     81.57918920	    567.03274463	   -116.38430020	     57.46748715	     -1.85228083	     31.11254022	     -0.47895090	    -43.80177114	     -9.52233086	      1.34723306	     -0.23543130	      1.01674481	      0.47895090	     43.80177114	      9.52233086	     -4.93492998	      0.06378663	     -0.04674372	     13.42590553	    -15.24056258	     77.42378029	     76.36175912	      0.00000000	      0.00000000	      0.00000000	      0.00000000	      0.00000000	      0.00000000	      0.00000000	      0.00000000	      0.00000001	      0.00000000
      0.14597685	     12.35615492	      9.09131212	      9.78800133	      4.18305699	      4.84020727	      5.30748530	     75.74192652	    155.82723185	    187.15377251	    339.19260538	    123.78790889	      9.05696753	      6.48749052	      0.00000000	      3.96999208	      6.73373586	      4.88217244	      3.53292545	     95.03876179	      5.87237680	      8.93503303	      6.72322351	     28.92416392	     20.09982083	      5.76235846	      3.88336361	      6.35174771	     41.27570729	     30.74912670	     33.31706719	     46.02549940	      0.00000000	      0.00000000	      0.00000000	      0.00000000	      0.00000000	      0.00000000	     32.60191242	      2.10914600	      1.78884362	     17.57334470	     27.69325337	      7.82759156	     12.35615492	      9.09131212	      9.78800133	      4.18305699	      4.84020727	      5.30748530	      0.00000000	      6.77240650	     13.26602081	     11.47042390	      2.38584236	      9.05696753	      6.48749052	      0.00000000	      3.96999208	      6.73373586	      5.79335678	      3.53292545	      2.46647912	      5.87237680	      8.93503303	      6.72322351	     28.92416392	     20.09982083	      5.76235846	      3.88336361	      6.35174771	     18.72411733	      0.00000000	      0.00000000	      0.00000000	     21.37203040	     10.16974899	     54.37062420	     53.07321153	      5.84475690	      5.21662464	     14.45639230	      7.78033722	     19.43160702	      3.10674089	      9.95956138	      3.13800558	     39.38101918	     39.38101918	     14.72772667	     14.72772667	     31.97692073	     31.97692073	     28.66630455	    349.94676535	     53.32660731	    -30.13733111	      0.88811280	      9.44807665	    -28.66630455	   -349.94676535	    -53.32660731	     10.22610713	     -1.89699604	      7.87604508	     23.86742999	     45.15000544	      8.63805360	     -2.48004403	     -0.45923164	      9.39809811	    -23.86742999	    -45.15000544	     -8.63805360	     -0.76548833	      0.26208948	      0.59992810	    -84.07356439	   -567.52402983	    116.76417034	    -11.68687635	      3.85122082	     10.43637756	     84.07356439	    567.52402983	   -116.76417034	     57.62404275	     -1.89972924	     32.12479222	     -0.50607782	    -42.66829510	     -9.31245716	      1.31253865	     -0.23188756	      0.99255775	      0.50607782	     42.66829510	      9.31245716	     -4.82199723	      0.06359868	     -0.03076446	     13.04461327	    -15.30639311	     80.32858969	     78.06204252	      0.00000000	      0.00000000	      0.00000000	      0.00000000	      0.00000000	      0.00000000	      0.00000000	      0.00000000	      0.00000001	      0.00000000
      0.14636031	     12.33758592	      9.07393986	      9.76908241	      4.17538350	      4.83179150	      5.29683286	     75.05147602	    156.22988627	    186.32764339	    338.51696919	    123.98734254	      9.03946680	      6.47569986	      0.00000000	      3.96230457	      6.71978553	      4.88930784	      3.52639808	     95.22738356	      5.86110038	      8.91784014	      6.71009915	     28.89202117	     20.06315616	      5.75156247	      3.87805197	      6.35155703	     41.44079207	     30.74512472	     33.30316700	     45.98499695	      0.00000000	      0.00000000	      0.00000000	      0.00000000	      0.00000000	      0.00000000	     32.68582700	      2.15476796	      1.84708780	     18.47853961	     27.88662887	      7.87779744	     12.33758592	      9.07393986	      9.76908241	      4.17538350	      4.83179150	      5.29683286	      0.00000000	      6.75870271	     13.24354272	     11.44890374	      2.38148603	      9.03946680	      6.47569986	      0.00000000	      3.96230457	      6.71978553	      5.78481014	      3.52639808	      2.46189720	      5.86110038	      8.91784014	      6.71009915	     28.89202117	     20.06315616	      5.75156247	      3.87805197	      6.35155703	     18.68457955	      0.00000000	      0.00000000	      0.00000000	     21.37441341	     10.16876550	     54.30065464	     53.02667429	      5.83605271	      5.20921329	     14.42937430	      7.76454314	     19.40481183	      3.10109698	      9.93000388	      3.12802081	     39.30861816	     39.30861816	     14.69856259	     14.69856259	     31.95037448	     31.95037448	     27.98279315	    349.30607007	     53.19635865	    -30.07090398	      0.86278229	      9.13982533	    -27.98279315	   -349.30607007	    -53.19635865	     10.20346041	     -1.87057606	      7.92854304	     23.82332424	     44.60478880	      8.65352921	     -2.49666854	     -0.46101473	      9.38604256	    -23.82332424	    -44.60478880	     -8.65352921	     -0.75648924	      0.26349034	      0.58810373	    -87.58081639	   -568.34374977	    116.69862994	    -11.68808572	      3.91135429	     10.40745110	     87.58081639	    568.34374977	   -116.69862994	     57.59788458	     -1.96013678	     33.55004818	     -0.52546438	    -41.04071460	     -8.90552489	      1.25913703	     -0.22379364	      0.95788944	      0.52546438	     41.04071460	      8.90552489	     -4.61550359	      0.06232862	     -0.01574498	     12.54163668	    -15.38483435	     84.21470867	     80.18004577	      0.00000000	      0.00000000	      0.00000000	      0.00000000	      0.00000000	      0.00000000	      0.00000000	      0.00000000	      0.00000001	      0.00000000
